<svg id="Layer_1" data-name="Layer 1" xmlns="http://www.w3.org/2000/svg" viewBox="0 0 1366 768"><defs><style>.cls-1{fill:#f5f3ef;}</style></defs><path class="cls-1" d="M0,0V768H1366V0ZM1146.62,556.61a57.86,57.86,0,0,0-7.21,9.43l-.85-.52a59.45,59.45,0,0,1,7.33-9.6Zm57.86-385.34a64.58,64.58,0,0,0-4.6,11l-1-.3a66.22,66.22,0,0,1,4.68-11.13Zm-.78,45.16a70.54,70.54,0,0,0,6.75,9.78l-.78.63a72.52,72.52,0,0,1-6.84-9.92Zm14.48-64.62a96.48,96.48,0,0,0-7.45,9.29l-.82-.57a98.57,98.57,0,0,1,7.53-9.39Zm18-15.62a114.71,114.71,0,0,0-9.43,7.31l-.65-.75a112.93,112.93,0,0,1,9.51-7.38ZM1256.74,124c-3.94,2-7.38,3.92-10.5,5.75l-.51-.86c3.14-1.84,6.59-3.73,10.55-5.78Zm21.44-10.81c-3.57,1.88-7.37,3.76-10.72,5.42l-.45-.89c3.35-1.66,7.14-3.54,10.71-5.41ZM1317,57.5a72.07,72.07,0,0,1-1,12l-1-.16a71.14,71.14,0,0,0,1-11.84Zm.6,321.14-1,.06c-.24-4-.65-8-1.21-11.86l1-.15C1317,370.59,1317.36,374.61,1317.6,378.64Zm-1.33,24c.34-4,.54-8.05.6-12h1c-.06,3.92-.27,8-.61,12Zm-3,23.73c.64-3.77,1.23-7.75,1.75-11.83l1,.12c-.52,4.1-1.11,8.09-1.76,11.88Zm-.06-71.21c-.91-3.86-2-7.72-3.27-11.46l1-.32c1.26,3.77,2.37,7.66,3.29,11.55ZM1308,449.65c1.08-3.64,2.09-7.53,3-11.55l1,.22c-.92,4-1.93,8-3,11.62Zm-1.15-358.08L1306,91a45.44,45.44,0,0,0,5.88-10.23l.92.39a47.26,47.26,0,0,1-6,10.41Zm-1.18,241c-1.59-3.59-3.38-7.19-5.31-10.69l.87-.48c2,3.52,3.75,7.15,5.35,10.76Zm-6.44,139.21a111.21,111.21,0,0,0,4.91-10.85l.93.36a112.53,112.53,0,0,1-5,10.95Zm-.72-371.52a82.08,82.08,0,0,1-9.78,7l-.53-.85a80.76,80.76,0,0,0,9.66-7Zm-4.37,211.42c-2.15-3.22-4.5-6.48-7-9.68l.79-.62c2.51,3.22,4.88,6.5,7,9.75Zm-8.56,179.51A83,83,0,0,0,1293,482l.81.57a82.9,82.9,0,0,1-7.58,9.34Zm-6.11-198.37c-2.54-2.86-5.3-5.79-8.2-8.72l.71-.71c2.91,2.95,5.68,5.89,8.24,8.76ZM1267,506a91.23,91.23,0,0,0,9.81-6.75l.62.79a93.57,93.57,0,0,1-9.91,6.82Zm-4.35-230.2c-2.73-2.53-5.64-5.16-8.9-8l.66-.75c3.27,2.88,6.19,5.52,8.92,8.06ZM1245.4,516.21c4-1.55,7.6-3.08,11-4.68l.42.9c-3.42,1.61-7,3.15-11.06,4.71ZM1235.48,252l.65-.76q3.06,2.64,6.23,5.34l2.89,2.47-.65.76-2.89-2.47Q1238.54,254.66,1235.48,252Zm-12.75,271.89c4.3-1.33,8-2.52,11.41-3.66l.32,1c-3.38,1.14-7.12,2.33-11.44,3.66Zm-5-288.13.71-.71c2.53,2.56,5.36,5.26,8.68,8.26l-.67.74c-3.32-3-6.17-5.71-8.71-8.27Zm-18,295,7-2.08,4.48-1.33.29,1-4.48,1.33-7,2.08Zm-2.93-335.43v-1.5h1v1.46a39.09,39.09,0,0,0,1.35,10.2l-1,.26a40.23,40.23,0,0,1-1.34-10.41Zm-20,342.54c3.62-1.18,7.36-2.37,11.44-3.63l.29,1c-4.07,1.26-7.81,2.45-11.42,3.63ZM1155,548.05a67.23,67.23,0,0,1,10.49-6l.42.91a65.43,65.43,0,0,0-10.33,5.87Zm-8.76,145.57.92-.38c2.76,6.87,4.72,11,4.74,11l-.9.43s-2-4.15-4.72-11Zm-8-22.62,1-.3c1.17,3.76,2.45,7.59,3.8,11.37l-.94.34C1140.66,678.56,1139.38,674.72,1138.2,671Zm-6.2-23.31,1-.21c.82,3.81,1.77,7.73,2.81,11.65l-1,.26C1133.81,655.45,1132.86,651.51,1132,647.69Zm-1.19-59.55-1-.2a79.15,79.15,0,0,1,3.39-11.58l.93.35a78.1,78.1,0,0,0-3.28,11.43Zm-2.53,35.78,1-.09c.35,3.83.86,7.83,1.5,11.88l-1,.15c-.6-4.07-1.11-8.08-1.46-11.94Zm-.65-13.6c0-3.59.15-7.11.44-10.46l1,.09c-.29,3.32-.44,6.81-.44,10.37v1.56h-1c0-.51,0-1,0-1.56Z"/></svg>