<svg id="Layer_1" data-name="Layer 1" xmlns="http://www.w3.org/2000/svg" viewBox="0 0 1366 768"><defs><style>.cls-1{fill:#f5f3ef;}</style></defs><path class="cls-1" d="M0,0V768H1366V0ZM179.34,334.83V336a49.34,49.34,0,0,1-1.23,10.83l-1-.22a48,48,0,0,0,1.2-10.61v-1.12Zm-6.06-23.24a64.05,64.05,0,0,1,4.29,11.28l-1,.26a63.09,63.09,0,0,0-4.22-11.1Zm-26.06-206.5.56.82c-3.39,2.31-6.69,4.63-9.8,6.9l-.59-.81C140.51,109.72,143.81,107.4,147.22,105.09ZM134.88,265.63l-.7.72-1.59-1.53c-2.34-2.26-4.7-4.53-7-6.82l.7-.71,7,6.81ZM94.55,153.79l.83.55a79.51,79.51,0,0,0-5.82,10.39l-.91-.42A80.38,80.38,0,0,1,94.55,153.79Zm-33,383.78,1,.07c-.3,3.92-.45,7.94-.45,12h-1C61.1,545.55,61.25,541.51,61.55,537.57Zm1.19,36c-.29-2-.53-4-.74-6s-.36-4-.5-5.94l1-.07c.13,2,.3,3.93.5,5.91s.45,4,.73,6Zm.16-47.93q.91-6,2.29-11.8l1,.23c-.9,3.85-1.67,7.79-2.27,11.72Zm5.77,71.17a104.25,104.25,0,0,1-3.6-11.46l1-.24a102.12,102.12,0,0,0,3.57,11.34Zm.69-94.24-1-.3c1.22-3.78,2.61-7.57,4.13-11.29l.93.38C72,495.05,70.57,498.82,69.36,502.57Zm10.75,115.3a87.12,87.12,0,0,1-6.43-10.14l.87-.48a85.43,85.43,0,0,0,6.37,10Zm-1.7-137.38-.89-.45c1.76-3.52,3.69-7.07,5.75-10.56l.86.51C82.08,473.46,80.16,477,78.41,480.49Zm4.77-292.8a52.2,52.2,0,0,1,1.47-12l1,.23a51.78,51.78,0,0,0-1.44,11.76Zm2.32,11.75a62.85,62.85,0,0,0,3.8,11.25l-.91.41a63.28,63.28,0,0,1-3.86-11.43ZM96.86,635.05a92.33,92.33,0,0,1-9-8l.71-.7a95.14,95.14,0,0,0,8.85,7.94ZM89.68,459.31c2.17-3.22,4.52-6.51,7-9.78l.8.6c-2.46,3.26-4.8,6.54-7,9.74Zm11.38-227.76a116.88,116.88,0,0,1-7-9.84l.85-.53a118.47,118.47,0,0,0,6.9,9.76Zm.7-87.41c2.44-2.92,5.17-5.91,8.11-8.88l.71.7c-2.92,2.95-5.63,5.92-8,8.82Zm2.37,296c2.45-3,5-5.95,7.82-9.12l.75.66c-2.81,3.16-5.36,6.14-7.8,9.1Zm13.14,207.64C113.57,646,110,644,106.73,642l.52-.85a115.39,115.39,0,0,0,10.46,5.75ZM117,249.52c-3.06-3.13-5.75-6-8.23-8.76l.75-.66c2.46,2.75,5.14,5.6,8.2,8.72ZM118.62,127c2.88-2.55,6-5.15,9.21-7.73l.63.79c-3.23,2.56-6.31,5.15-9.17,7.69ZM120,422.08c2.42-2.61,5-5.38,8.26-8.73l.72.69c-3.21,3.35-5.83,6.12-8.25,8.72Zm19.59,234.51c-3.94-1.26-7.76-2.61-11.34-4l.36-.93c3.57,1.4,7.36,2.74,11.28,4Zm-2.29-251.2-.72-.7c2.51-2.61,5.46-5.68,8.28-8.69l.73.68c-2.78,3-5.73,6.09-8.25,8.71Zm5.44-130.66.71-.72c3.21,3.18,6,6,8.42,8.59l-.73.68c-2.4-2.58-5.14-5.38-8.36-8.55Zm20.11,387.95c-4-.87-8-1.8-11.7-2.76l.25-1c3.71,1,7.63,1.89,11.66,2.75ZM153,387.13c2.89-3.29,5.4-6.3,7.67-9.2l.78.62c-2.27,2.91-4.79,5.94-7.7,9.24Zm13.41-85.4a113.37,113.37,0,0,0-7.22-9.52l.77-.64a117,117,0,0,1,7.28,9.6Zm2,67-.84-.54a82.43,82.43,0,0,0,5.74-10.42l.91.41a83.39,83.39,0,0,1-5.8,10.57Zm18.14,298.18c-4.12-.62-8.11-1.27-11.86-1.94l.17-1c3.75.67,7.73,1.33,11.84,2ZM210.37,670c-4.29-.49-8.19-1-11.93-1.46l.13-1c3.74.48,7.63,1,11.91,1.46Zm23.9,2.6-1.08-.12-10.86-1.15.1-1,10.86,1.15,1.09.11Zm23.88,2.6q-5.89-.69-11.93-1.34l.11-1q6,.65,11.94,1.34Zm23.78,3.25c-3.74-.6-7.62-1.18-11.87-1.75l.14-1c4.25.57,8.14,1.15,11.89,1.76ZM305.5,683c-3.89-.83-7.85-1.63-11.76-2.38l.19-1c3.92.75,7.88,1.56,11.77,2.38Zm23.39,5.33c-3.92-1-7.85-1.89-11.67-2.76l.22-1c3.83.88,7.76,1.81,11.69,2.77Zm23.22,6.06c-3.87-1.07-7.76-2.12-11.59-3.12l.25-1c3.83,1,7.74,2.05,11.6,3.13Zm23,6.76c-3.82-1.19-7.69-2.35-11.49-3.47l.28-1c3.81,1.12,7.68,2.29,11.51,3.47ZM398,708.58c-3.8-1.3-7.63-2.58-11.38-3.8l.31-.95c3.76,1.22,7.59,2.5,11.4,3.8Zm22.61,8.06c-3.76-1.4-7.55-2.78-11.28-4.11l.34-.94c3.73,1.33,7.52,2.71,11.29,4.11ZM443,725.33c-3.65-1.48-7.41-3-11.16-4.42l.37-.94c3.75,1.46,7.51,2.95,11.17,4.44Zm22.12,9.33c-3.6-1.58-7.31-3.18-11-4.74l.39-.93c3.73,1.58,7.44,3.17,11,4.76Zm21.82,10c-3.51-1.68-7.17-3.4-10.87-5.1l.41-.9c3.71,1.7,7.37,3.41,10.89,5.1ZM505.5,754l-.25-.07c-.29-.15-2.94-1.6-7.61-4l.45-.89c4.59,2.32,7.17,3.72,7.64,4Z"/></svg>